# xmcd CD database file generated by Grip 3.2.0
# 
# Track frame offsets:
#       183
#       17290
#       36090
#       64890
# 
# Disc length: 1172 seconds
# 
# Revision: 3
# Processed by: cddbd v1.5.1PL0 Copyright (c) Steve Scherf et al.
# Submitted via: Grip 3.2.0
# 
DISCID=27049204
DTITLE=Shara Nelson - Down That Road (Single)
DYEAR=1993
DGENRE=Other
TTITLE0=Down That Road (Radio Edit)
TTITLE1=Down That Road (Perfecto Edit)
TTITLE2=Down That Road (Barkin' Loud Mix)
TTITLE3=Down That Road (Frankie Foncett Mix)
EXTD=
EXTT0=
EXTT1=
EXTT2=
EXTT3=
PLAYORDER=
